<svg width="79" height="56" viewBox="0 0 79 56" fill="none" xmlns="http://www.w3.org/2000/svg">
<path d="M75.6129 34.2786C75.6129 34.8468 75.0677 35.308 74.3959 35.308H15.6446C14.9728 35.308 14.4276 34.8468 14.4276 34.2786C14.4276 33.7098 14.9728 33.2496 15.6446 33.2496H74.3959C75.0677 33.2496 75.6129 33.7098 75.6129 34.2786Z" fill="url(#paint0_linear)"/>
<path d="M12.6895 34.2786C12.6895 34.8468 12.1437 35.308 11.4725 35.308H8.34377C7.67194 35.308 7.12677 34.8468 7.12677 34.2786C7.12677 33.7098 7.67194 33.2496 8.34377 33.2496H11.4725C12.1437 33.2496 12.6895 33.7098 12.6895 34.2786Z" fill="url(#paint1_linear)"/>
<path d="M56.2458 1.17203C56.2458 1.74126 55.7007 2.20193 55.0288 2.20193H51.8996C51.2289 2.20193 50.6831 1.74126 50.6831 1.17203C50.6831 0.603267 51.2289 0.143066 51.8996 0.143066H55.0288C55.7007 0.143066 56.2458 0.603267 56.2458 1.17203Z" fill="url(#paint2_linear)"/>
<path d="M57.9773 0.16287C55.9752 -0.286474 53.5434 0.167117 53.0128 1.85924C52.9782 1.96686 52.9542 2.07731 52.9363 2.18964H54.8268C55.4987 2.18964 56.0433 2.65031 56.0433 3.21907C56.0433 3.78784 55.4987 4.24804 54.8268 4.24804H53.4006C53.9603 5.21894 54.9396 6.04164 56.0544 6.29133C58.2418 6.47588 60.7623 5.41057 61.293 3.71845C61.8242 2.02586 59.9766 0.611271 57.9773 0.16287Z" fill="url(#paint3_linear)"/>
<path d="M57.84 5.26472C57.84 5.83348 57.2938 6.29416 56.623 6.29416H53.4943C52.8225 6.29416 52.2773 5.83348 52.2773 5.26472C52.2773 4.69596 52.8225 4.23624 53.4943 4.23624H56.623C57.2938 4.23624 57.84 4.69596 57.84 5.26472Z" fill="url(#paint4_linear)"/>
<path d="M72.0372 14.9346C72.79 15.7799 73.3748 16.6989 73.8262 17.6566H61.3359C60.6635 17.6566 60.1195 18.1173 60.1195 18.6856C60.1195 19.2543 60.6635 19.7145 61.3359 19.7145H74.5873C74.7793 20.4013 74.9154 21.0918 75.0091 21.7781H50.1876C49.5158 21.7781 48.9706 22.2388 48.9706 22.8075C48.9706 23.3758 49.5158 23.8365 50.1876 23.8365H75.1721C75.1888 24.5417 75.1698 25.2228 75.1246 25.8722H35.0497C35.7321 24.4355 42.2824 11.4635 56.6197 9.95121C56.6454 9.95121 56.6699 9.95026 56.695 9.95026C63.9301 9.95026 69.0927 11.6273 72.0372 14.9346ZM77.0375 31.8426C77.0403 31.835 77.0419 31.8298 77.0447 31.8213C77.0687 31.7444 77.1028 31.6344 77.1441 31.4909C77.1457 31.4876 77.1463 31.4843 77.1469 31.482C77.1669 31.4135 77.1887 31.3361 77.2121 31.253C77.2138 31.245 77.2166 31.237 77.2183 31.228C77.2936 30.959 77.3801 30.621 77.4722 30.2236C77.4738 30.2189 77.4738 30.2156 77.4755 30.2113C77.5988 29.6756 77.7272 29.0342 77.8399 28.3101C77.8415 28.3007 77.8432 28.2912 77.8444 28.2818C77.9275 27.7447 78.0011 27.1641 78.0547 26.5491C78.0564 26.5264 78.0592 26.5042 78.0609 26.4816C78.077 26.289 78.0921 26.0931 78.1044 25.8944C78.1055 25.8869 78.1055 25.8798 78.106 25.8722C78.5547 18.6138 76.0967 7.43781 56.695 7.43781C36.7538 7.43781 24.6502 18.6115 19.1377 25.893H14.6179C13.9455 25.893 13.4009 26.3537 13.4009 26.922C13.4009 27.4912 13.9455 27.9514 14.6179 27.9514H17.6769C17.6741 27.9552 17.6707 27.9604 17.6679 27.9637C18.0173 28.1444 18.2516 28.4673 18.2516 28.8388C18.2516 29.4066 17.7065 29.8672 17.0346 29.8672L1.217 29.888C0.545166 29.888 0 30.3487 0 30.917C0 31.4862 0.545166 31.9464 1.217 31.9464H17.1077H20.3374H77.0029C77.0029 31.9464 77.0057 31.9374 77.0101 31.9237C77.0129 31.9181 77.014 31.9138 77.0174 31.9053C77.0224 31.8898 77.0291 31.869 77.0375 31.8426Z" fill="url(#paint5_linear)"/>
<path d="M53.688 18.6856C53.688 19.2543 54.2331 19.7145 54.905 19.7145H58.0337C58.7044 19.7145 59.2507 19.2543 59.2507 18.6856C59.2507 18.1168 58.7044 17.6561 58.0337 17.6561H54.905C54.2331 17.6561 53.688 18.1168 53.688 18.6856Z" fill="url(#paint6_linear)"/>
<path d="M36.1344 42.5503C34.4978 41.9585 32.3857 43.036 31.4148 44.9575C30.4445 46.8781 30.9846 48.9157 32.6212 49.5067C34.2573 50.0986 36.3704 49.0205 37.3402 47.099C38.3106 45.1775 37.7716 43.1403 36.1344 42.5503Z" fill="url(#paint7_linear)"/>
<path d="M61.3387 42.5503C59.7032 41.9585 57.5889 43.036 56.6186 44.9575C55.6482 46.8781 56.1883 48.9157 57.8244 49.5067C59.461 50.0986 61.5742 49.0205 62.5451 47.099C63.5144 45.1775 62.9764 43.1403 61.3387 42.5503Z" fill="url(#paint8_linear)"/>
<path d="M12.1677 47.3647C12.1677 47.9326 11.6226 48.3942 10.9513 48.3942H7.82259C7.15076 48.3942 6.60559 47.9326 6.60559 47.3647C6.60559 46.7955 7.15076 46.3348 7.82259 46.3348H10.9513C11.6226 46.3348 12.1677 46.7955 12.1677 47.3647Z" fill="url(#paint9_linear)"/>
<path d="M49.1922 1.1725C49.1922 1.74126 48.6464 2.20193 47.9757 2.20193H44.8459C44.1746 2.20193 43.6295 1.74126 43.6295 1.1725C43.6295 0.603739 44.1746 0.143066 44.8459 0.143066H47.9757C48.6464 0.143066 49.1922 0.603739 49.1922 1.1725Z" fill="url(#paint10_linear)"/>
<path d="M26.7689 46.3348H15.8182C15.1464 46.3348 14.6012 46.7955 14.6012 47.3647C14.6012 47.9326 15.1464 48.3937 15.8182 48.3937H26.7689V46.3348Z" fill="url(#paint11_linear)"/>
<path d="M26.7689 50.3044H4.6939C4.02206 50.3044 3.4769 50.765 3.4769 51.3343C3.4769 51.903 4.02206 52.3632 4.6939 52.3632H26.7689V50.3044Z" fill="url(#paint12_linear)"/>
<path d="M64.7408 47.8924C63.251 50.8434 60.3583 52.9046 57.7056 52.9046C57.1866 52.9046 56.6922 52.8201 56.2347 52.6549C54.9663 52.1971 54.0512 51.1256 53.6573 49.6412C53.2131 47.9647 53.4849 46.02 54.4217 44.1641C55.9133 41.2137 58.8054 39.152 61.4592 39.152C61.9782 39.152 62.472 39.236 62.9284 39.4012C64.1973 39.86 65.113 40.9304 65.507 42.4154C65.9511 44.0919 65.6794 46.0365 64.7408 47.8924ZM64.1053 37.0709C59.8935 35.5478 54.4519 38.3245 51.9531 43.2711C50.8773 45.3989 50.5269 47.579 50.8053 49.4963H51.365C52.0357 49.4963 52.582 49.957 52.582 50.5257C52.582 51.0836 52.0564 51.5349 51.4018 51.5509C52.1105 53.1293 53.3459 54.3673 55.0573 54.9857C59.2708 56.5093 64.7129 53.7325 67.2116 48.7855C69.7104 43.838 68.3204 38.5926 64.1053 37.0709Z" fill="url(#paint13_linear)"/>
<path d="M51.9732 47.5115H41.0219C40.3501 47.5115 39.8049 47.9722 39.8049 48.54C39.8049 49.1088 40.3501 49.569 41.0219 49.569H51.9732V47.5115Z" fill="url(#paint14_linear)"/>
<path d="M37.8932 53.5399H53.3638V51.4815H37.8932V53.5399Z" fill="url(#paint15_linear)"/>
<path d="M39.5371 47.8924C38.0472 50.8434 35.154 52.9046 32.5013 52.9046C31.9823 52.9046 31.4885 52.8201 31.0304 52.6549C29.762 52.1971 28.8464 51.1256 28.4524 49.6412C28.0082 47.9647 28.28 46.02 29.218 44.1641C30.7084 41.2137 33.6016 39.152 36.2538 39.152C36.7728 39.152 37.2683 39.236 37.7236 39.4012C38.9936 39.86 39.9093 40.9304 40.3032 42.4154C40.7468 44.0919 40.4751 46.0365 39.5371 47.8924ZM38.9015 37.0709C34.6886 35.5478 29.247 38.3245 26.7483 43.2711C25.9012 44.9481 25.5106 46.6577 25.5157 48.2469H25.5519C26.2238 48.2469 26.7689 48.7076 26.7689 49.2754C26.7689 49.7847 26.3309 50.2053 25.7578 50.2874C26.2969 52.4652 27.7064 54.2102 29.8536 54.9857C34.067 56.5093 39.5086 53.7325 42.0068 48.7855C44.5055 43.838 43.1161 38.5926 38.9015 37.0709Z" fill="url(#paint16_linear)"/>
<defs>
<linearGradient id="paint0_linear" x1="14.4276" y1="33.2496" x2="14.6162" y2="37.8233" gradientUnits="userSpaceOnUse">
<stop stop-color="#43E97B"/>
<stop offset="1" stop-color="#38F9D7"/>
</linearGradient>
<linearGradient id="paint1_linear" x1="7.12677" y1="33.2496" x2="8.85024" y2="37.0494" gradientUnits="userSpaceOnUse">
<stop stop-color="#43E97B"/>
<stop offset="1" stop-color="#38F9D7"/>
</linearGradient>
<linearGradient id="paint2_linear" x1="50.6831" y1="0.143066" x2="52.4073" y2="3.94342" gradientUnits="userSpaceOnUse">
<stop stop-color="#43E97B"/>
<stop offset="1" stop-color="#38F9D7"/>
</linearGradient>
<linearGradient id="paint3_linear" x1="52.9363" y1="0" x2="59.9338" y2="7.64126" gradientUnits="userSpaceOnUse">
<stop stop-color="#43E97B"/>
<stop offset="1" stop-color="#38F9D7"/>
</linearGradient>
<linearGradient id="paint4_linear" x1="52.2773" y1="4.23624" x2="54.0002" y2="8.03543" gradientUnits="userSpaceOnUse">
<stop stop-color="#43E97B"/>
<stop offset="1" stop-color="#38F9D7"/>
</linearGradient>
<linearGradient id="paint5_linear" x1="0" y1="7.43781" x2="18.2695" y2="54.9654" gradientUnits="userSpaceOnUse">
<stop stop-color="#43E97B"/>
<stop offset="1" stop-color="#38F9D7"/>
</linearGradient>
<linearGradient id="paint6_linear" x1="53.688" y1="17.6561" x2="55.4114" y2="21.4559" gradientUnits="userSpaceOnUse">
<stop stop-color="#43E97B"/>
<stop offset="1" stop-color="#38F9D7"/>
</linearGradient>
<linearGradient id="paint7_linear" x1="30.9326" y1="42.388" x2="38.7716" y2="48.44" gradientUnits="userSpaceOnUse">
<stop stop-color="#43E97B"/>
<stop offset="1" stop-color="#38F9D7"/>
</linearGradient>
<linearGradient id="paint8_linear" x1="56.1363" y1="42.388" x2="63.9755" y2="48.4407" gradientUnits="userSpaceOnUse">
<stop stop-color="#43E97B"/>
<stop offset="1" stop-color="#38F9D7"/>
</linearGradient>
<linearGradient id="paint9_linear" x1="6.60559" y1="46.3348" x2="8.3305" y2="50.1356" gradientUnits="userSpaceOnUse">
<stop stop-color="#43E97B"/>
<stop offset="1" stop-color="#38F9D7"/>
</linearGradient>
<linearGradient id="paint10_linear" x1="43.6295" y1="0.143066" x2="45.3536" y2="3.94341" gradientUnits="userSpaceOnUse">
<stop stop-color="#43E97B"/>
<stop offset="1" stop-color="#38F9D7"/>
</linearGradient>
<linearGradient id="paint11_linear" x1="14.6012" y1="46.3348" x2="15.5125" y2="50.7284" gradientUnits="userSpaceOnUse">
<stop stop-color="#43E97B"/>
<stop offset="1" stop-color="#38F9D7"/>
</linearGradient>
<linearGradient id="paint12_linear" x1="3.4769" y1="50.3044" x2="3.96766" y2="54.8337" gradientUnits="userSpaceOnUse">
<stop stop-color="#43E97B"/>
<stop offset="1" stop-color="#38F9D7"/>
</linearGradient>
<linearGradient id="paint13_linear" x1="50.7139" y1="36.6536" x2="70.8996" y2="52.2344" gradientUnits="userSpaceOnUse">
<stop stop-color="#43E97B"/>
<stop offset="1" stop-color="#38F9D7"/>
</linearGradient>
<linearGradient id="paint14_linear" x1="39.8049" y1="47.5115" x2="40.7149" y2="51.9023" gradientUnits="userSpaceOnUse">
<stop stop-color="#43E97B"/>
<stop offset="1" stop-color="#38F9D7"/>
</linearGradient>
<linearGradient id="paint15_linear" x1="37.8932" y1="51.4815" x2="38.6211" y2="55.9443" gradientUnits="userSpaceOnUse">
<stop stop-color="#43E97B"/>
<stop offset="1" stop-color="#38F9D7"/>
</linearGradient>
<linearGradient id="paint16_linear" x1="25.5156" y1="36.6536" x2="45.6995" y2="52.2274" gradientUnits="userSpaceOnUse">
<stop stop-color="#43E97B"/>
<stop offset="1" stop-color="#38F9D7"/>
</linearGradient>
</defs>
</svg>
