<svg width="25" height="25" viewBox="0 0 25 25" fill="none" xmlns="http://www.w3.org/2000/svg">
<g clip-path="url(#clip0)">
<path d="M23.3425 24.1783L21.4424 6.08386C21.4025 5.70506 21.0832 5.41743 20.7023 5.41743H17.131V4.60319C17.131 2.06508 15.0659 0 12.5278 0C9.98955 0 7.92447 2.06508 7.92447 4.60319V5.41743H4.35316C3.97226 5.41743 3.65297 5.70506 3.61311 6.08386L1.71301 24.1783C1.69107 24.3879 1.75917 24.5971 1.90012 24.7539C2.04126 24.9105 2.2423 25 2.45306 25H22.6022C22.8132 25 23.0142 24.9105 23.1552 24.7539C23.2965 24.5971 23.3644 24.3879 23.3425 24.1783ZM9.41258 4.60319C9.41258 2.88562 10.8101 1.48811 12.5278 1.48811C14.2454 1.48811 15.6429 2.88562 15.6429 4.60319V5.41743H9.41258V4.60319ZM3.27932 23.5118L5.02321 6.90554H7.92447V8.54529C7.92447 8.95613 8.25768 9.28934 8.66852 9.28934C9.07937 9.28934 9.41258 8.95613 9.41258 8.54529V6.90554H15.6429V8.54529C15.6429 8.95613 15.9761 9.28934 16.387 9.28934C16.7978 9.28934 17.131 8.95613 17.131 8.54529V6.90554H20.0323L21.7762 23.5118H3.27932Z" fill="white"/>
</g>
<defs>
<clipPath id="clip0">
<rect width="25" height="25" fill="white"/>
</clipPath>
</defs>
</svg>
