<svg width="8" height="7" viewBox="0 0 8 7" fill="none" xmlns="http://www.w3.org/2000/svg">
<g clip-path="url(#clip0)">
<path d="M6.59434 2.875H4.56886C4.50306 2.875 4.44972 2.81903 4.44972 2.75V0.625C4.44972 0.279846 4.18298 0 3.85399 0C3.525 0 3.25826 0.279846 3.25826 0.625V2.75C3.25826 2.81903 3.20491 2.875 3.13911 2.875H1.11363C0.784639 2.875 0.517899 3.15485 0.517899 3.5C0.517899 3.84515 0.784639 4.125 1.11363 4.125H3.13911C3.20491 4.125 3.25826 4.18097 3.25826 4.25V6.375C3.25826 6.72015 3.525 7 3.85399 7C4.18298 7 4.44972 6.72015 4.44972 6.375V4.25C4.44972 4.18097 4.50306 4.125 4.56886 4.125H6.59434C6.92333 4.125 7.19007 3.84515 7.19007 3.5C7.19007 3.15485 6.92333 2.875 6.59434 2.875Z" fill="#666666"/>
</g>
<defs>
<clipPath id="clip0">
<rect width="6.67218" height="7" fill="#666666" transform="translate(0.517899)"/>
</clipPath>
</defs>
</svg>
